<mxfile host="Electron" agent="Mozilla/5.0 (Windows NT 10.0; Win64; x64) AppleWebKit/537.36 (KHTML, like Gecko) draw.io/24.7.8 Chrome/128.0.6613.36 Electron/32.0.1 Safari/537.36" version="24.7.8">
  <diagram name="Seite-1" id="tQBoXqMDrE9uRnikWBQn">
    <mxGraphModel dx="1461" dy="1992" grid="1" gridSize="10" guides="1" tooltips="1" connect="1" arrows="1" fold="1" page="1" pageScale="1" pageWidth="827" pageHeight="1169" math="0" shadow="0">
      <root>
        <mxCell id="0" />
        <mxCell id="1" parent="0" />
        <mxCell id="0nk3LpOQUH134631zLUj-3" style="edgeStyle=orthogonalEdgeStyle;rounded=0;orthogonalLoop=1;jettySize=auto;html=1;entryX=0;entryY=0.5;entryDx=0;entryDy=0;" parent="1" source="0nk3LpOQUH134631zLUj-1" target="0nk3LpOQUH134631zLUj-2" edge="1">
          <mxGeometry relative="1" as="geometry" />
        </mxCell>
        <mxCell id="0nk3LpOQUH134631zLUj-1" value="" style="ellipse;whiteSpace=wrap;html=1;aspect=fixed;fillColor=#000000;" parent="1" vertex="1">
          <mxGeometry x="80" y="40" width="40" height="40" as="geometry" />
        </mxCell>
        <mxCell id="0nk3LpOQUH134631zLUj-5" style="edgeStyle=orthogonalEdgeStyle;rounded=0;orthogonalLoop=1;jettySize=auto;html=1;entryX=0;entryY=0.5;entryDx=0;entryDy=0;" parent="1" source="0nk3LpOQUH134631zLUj-2" target="0nk3LpOQUH134631zLUj-4" edge="1">
          <mxGeometry relative="1" as="geometry" />
        </mxCell>
        <mxCell id="0nk3LpOQUH134631zLUj-2" value="Podium" style="rounded=1;whiteSpace=wrap;html=1;" parent="1" vertex="1">
          <mxGeometry x="160" y="30" width="120" height="60" as="geometry" />
        </mxCell>
        <mxCell id="qpHP2KSQslIvlQp5Ijf--1" value="Ceremony" style="shape=umlFrame;whiteSpace=wrap;html=1;pointerEvents=0;recursiveResize=0;container=1;collapsible=0;width=160;" parent="1" vertex="1">
          <mxGeometry x="50" y="-30" width="550" height="150" as="geometry" />
        </mxCell>
        <mxCell id="0nk3LpOQUH134631zLUj-6" value="" style="ellipse;whiteSpace=wrap;html=1;aspect=fixed;" parent="qpHP2KSQslIvlQp5Ijf--1" vertex="1">
          <mxGeometry x="470" y="70" width="40" height="40" as="geometry" />
        </mxCell>
        <mxCell id="0nk3LpOQUH134631zLUj-7" value="" style="ellipse;whiteSpace=wrap;html=1;aspect=fixed;fillColor=#000000;" parent="qpHP2KSQslIvlQp5Ijf--1" vertex="1">
          <mxGeometry x="476.40999999999997" y="76.40999999999997" width="27.18" height="27.18" as="geometry" />
        </mxCell>
        <mxCell id="0nk3LpOQUH134631zLUj-4" value="Statistics" style="rounded=1;whiteSpace=wrap;html=1;" parent="qpHP2KSQslIvlQp5Ijf--1" vertex="1">
          <mxGeometry x="304" y="60" width="120" height="60" as="geometry" />
        </mxCell>
        <mxCell id="0nk3LpOQUH134631zLUj-8" style="edgeStyle=orthogonalEdgeStyle;rounded=0;orthogonalLoop=1;jettySize=auto;html=1;entryX=0;entryY=0.5;entryDx=0;entryDy=0;" parent="qpHP2KSQslIvlQp5Ijf--1" source="0nk3LpOQUH134631zLUj-4" target="0nk3LpOQUH134631zLUj-6" edge="1">
          <mxGeometry relative="1" as="geometry" />
        </mxCell>
        <mxCell id="cmQNJ_RK8W3VpjLQkFHx-2" value="next()" style="text;html=1;align=center;verticalAlign=middle;resizable=0;points=[];autosize=1;strokeColor=none;fillColor=none;" parent="qpHP2KSQslIvlQp5Ijf--1" vertex="1">
          <mxGeometry x="424" y="60" width="50" height="30" as="geometry" />
        </mxCell>
        <mxCell id="cmQNJ_RK8W3VpjLQkFHx-1" value="next()" style="text;html=1;align=center;verticalAlign=middle;resizable=0;points=[];autosize=1;strokeColor=none;fillColor=none;" parent="qpHP2KSQslIvlQp5Ijf--1" vertex="1">
          <mxGeometry x="240" y="60" width="50" height="30" as="geometry" />
        </mxCell>
      </root>
    </mxGraphModel>
  </diagram>
</mxfile>
